<?xml version="1.0" encoding="UTF-8"?>
<svg width="12px" height="17px" viewBox="0 0 12 17" version="1.1" xmlns="http://www.w3.org/2000/svg" xmlns:xlink="http://www.w3.org/1999/xlink">
    <!-- Generator: Sketch 43.2 (39069) - http://www.bohemiancoding.com/sketch -->
    <title>drop</title>
    <desc>Created with Sketch.</desc>
    <defs></defs>
    <g id="Page-1" stroke="none" stroke-width="1" fill="none" fill-rule="evenodd">
        <g id="drop" fill-rule="nonzero" fill="#000000">
            <path d="M7.51729577,1.82901408 C7.13419718,1.2656338 6.79616901,0.747323943 6.48067606,0.274084507 C6.43560563,0.206478873 6.368,0.138873239 6.30039437,0.0938028167 C6.02997183,-0.0864788734 5.66940845,0.00366197167 5.48912676,0.274084507 C5.19616901,0.747323943 4.85814085,1.24309859 4.45250704,1.82901408 C2.67222535,4.44309859 0.0130704225,8.38676056 0.0130704225,10.6402817 C0.0130704225,12.2853521 0.689126761,13.7726761 1.7708169,14.8543662 C2.85250704,15.9135211 4.33983099,16.5895775 5.98490141,16.5895775 C7.62997183,16.5895775 9.11729577,15.9135211 10.1989859,14.831831 C11.2806761,13.7501408 11.9567324,12.2628169 11.9567324,10.6177465 C11.9567324,8.36422535 9.29757746,4.44309859 7.51729577,1.82901408 Z M9.38771831,14.0205634 C8.50884507,14.8994366 7.31447887,15.4177465 5.98490141,15.4177465 C4.65532394,15.4177465 3.46095775,14.8769014 2.58208451,14.0205634 C1.70321127,13.1416901 1.18490141,11.9473239 1.18490141,10.6177465 C1.18490141,8.72478873 3.73138028,4.96140845 5.42152113,2.46 C5.62433803,2.16704225 5.80461972,1.87408451 5.98490141,1.62619718 C6.1651831,1.87408451 6.34546479,2.16704225 6.54828169,2.46 C8.23842254,4.98394366 10.7849014,8.72478873 10.7849014,10.6177465 C10.7849014,11.9473239 10.2440563,13.1416901 9.38771831,14.0205634 Z" id="Shape"></path>
            <path d="M8.47785915,9.21211268 C8.1623662,9.18957746 7.89194366,9.43746479 7.86940845,9.75295775 C7.84687324,10.2487324 7.68912676,10.7219718 7.44123944,11.1276056 C7.19335211,11.5332394 6.83278873,11.8938028 6.40461972,12.1191549 C6.13419718,12.2769014 6.02152113,12.6374648 6.17926761,12.9078873 C6.3595493,13.2233803 6.72011268,13.3135211 6.99053521,13.1557746 C7.59898592,12.8177465 8.09476056,12.3219718 8.43278873,11.7585915 C8.79335211,11.1952113 8.99616901,10.5191549 9.01870423,9.82056338 C9.04123944,9.50507042 8.79335211,9.23464789 8.47785915,9.21211268 Z" id="Shape"></path>
        </g>
    </g>
</svg>