<?xml version="1.0" encoding="UTF-8"?>
<svg width="14px" height="12px" viewBox="0 0 14 12" version="1.1" xmlns="http://www.w3.org/2000/svg" xmlns:xlink="http://www.w3.org/1999/xlink">
    <!-- Generator: Sketch 43.2 (39069) - http://www.bohemiancoding.com/sketch -->
    <title>pollution</title>
    <desc>Created with Sketch.</desc>
    <defs></defs>
    <g id="Page-1" stroke="none" stroke-width="1" fill="none" fill-rule="evenodd">
        <g id="pollution" fill-rule="nonzero">
            <path d="M11.5386397,3.99200212 C11.6838208,3.67177552 11.7593555,3.32337483 11.7593555,2.96640922 C11.7593555,1.5948386 10.6434928,0.47900412 9.27195039,0.47900412 C8.85804497,0.47900412 8.45636709,0.580289941 8.09633051,0.773845879 C7.62818998,0.281701029 6.98542649,0.0039609375 6.29688012,0.0039609375 C5.39942294,0.0039609375 4.57744412,0.487822607 4.13761854,1.25590441 C3.93730082,1.2048248 3.73106655,1.17901734 3.52178947,1.17901734 C2.15021886,1.17901734 1.03438437,2.29488 1.03438437,3.66642244 C1.03438437,3.92041178 1.07216582,4.16904805 1.14699617,4.408246 C0.603236409,4.87838689 0.284333984,5.5673277 0.284333984,6.29151428 C0.284333984,7.60146818 1.30220719,8.67819704 2.58855121,8.7722703 C2.58576198,8.82033528 2.58435327,8.86851296 2.58435327,8.91660612 C2.58435327,10.2881767 3.70021593,11.4040112 5.07175837,11.4040112 C5.88697541,11.4040112 6.64699943,10.9992624 7.10789922,10.345032 C7.57102477,10.810496 8.20468802,11.0790232 8.87190661,11.0790232 C10.1760848,11.0790232 11.2490102,10.0701939 11.3513103,8.79185128 C12.4690888,8.5376929 13.284334,7.53551266 13.284334,6.36657003 C13.284334,5.26947131 12.55733,4.31118629 11.5386397,3.99200212 Z M10.8595201,8.15818592 C10.7195517,8.17560432 10.6153114,8.29599383 10.6181469,8.43704237 C10.61839,8.44860062 10.618606,8.46018589 10.618606,8.47179815 C10.618606,9.48271353 9.79616044,10.3051591 8.78524507,10.3051591 C8.18586304,10.3051591 7.62307316,10.0109907 7.27980913,9.51827948 C7.22353015,9.4374797 7.1280395,9.392921 7.03028041,9.40129263 C6.93219726,9.40969127 6.84605044,9.46983202 6.8043273,9.55900343 C6.50378562,10.2015399 5.85155427,10.6166919 5.14274688,10.6166919 C4.1318315,10.6166919 3.30938592,9.79424636 3.30938592,8.78333098 C3.30938592,8.66313051 3.32121423,8.54257897 3.34446577,8.42494401 C3.36107401,8.34106563 3.33776846,8.25427068 3.28143546,8.18994412 C3.22896422,8.13007343 3.15334945,8.09601978 3.07427802,8.09601978 C3.06844488,8.09601978 3.06261174,8.09620882 3.05685962,8.09658689 C3.01519048,8.09923341 2.9763839,8.10052966 2.93814444,8.10052966 C1.92722906,8.10052966 1.10478348,7.27808408 1.10478348,6.26716871 C1.10478348,5.67923691 1.39009418,5.12268525 1.8680335,4.77844904 C1.97159872,4.70383347 2.01035129,4.56786192 1.96166078,4.44984888 C1.87011291,4.22805457 1.82366384,3.99291967 1.82366384,3.75097943 C1.82366384,2.74006405 2.64610942,1.91761847 3.6570248,1.91761847 C3.87549745,1.91761847 4.08924419,1.9556689 4.29224282,2.03066254 C4.42864645,2.08105438 4.58074015,2.01672782 4.63955763,1.88375386 C4.93318596,1.22012629 5.59162852,0.791336565 6.31693614,0.791336565 C6.88817867,0.791336565 7.41677988,1.05080323 7.76725431,1.50319555 C7.85629069,1.61821101 8.01942954,1.64410907 8.13976504,1.56236411 C8.44376339,1.35582778 8.79950385,1.24667247 9.16858491,1.24667247 C10.1795003,1.24667247 11.0019459,2.06911805 11.0019459,3.08003343 C11.0019459,3.44417252 10.8953831,3.79602422 10.6938427,4.09748408 C10.6411284,4.17633948 10.6327028,4.27677209 10.6715364,4.36332399 C10.7103429,4.44987588 10.7909807,4.51031368 10.884932,4.52338424 C11.7849638,4.64828362 12.4636873,5.42887103 12.4636873,6.33908375 C12.4638223,7.262313 11.7741076,8.0443857 10.8595201,8.15818592 Z" id="Shape" fill="#333333"></path>
            <g id="Group" transform="translate(8.000000, 8.000000)" fill="#000000">
                <path d="M1.50901563,0.808488281 C1.33354102,0.97946875 1.10200391,1.07366797 0.856933594,1.07366797 C0.69428125,1.07366797 0.53421875,1.03129102 0.394087891,0.951158203 C0.269851563,0.880115234 0.111693359,0.923279297 0.0407011719,1.04738867 C-0.0303164062,1.17154883 0.012796875,1.32975781 0.136931641,1.40077539 C0.355240234,1.52564648 0.604195313,1.59163672 0.856933594,1.59163672 C1.23781836,1.59163672 1.59778125,1.44525977 1.87050195,1.17939453 C1.97292773,1.07955859 1.97500977,0.915611328 1.87522461,0.813185547 C1.77538867,0.710785156 1.61141602,0.708677734 1.50901563,0.808488281 Z" id="Shape"></path>
                <path d="M2.07139258,0.0156914062 C1.92897656,-0.000203125 1.80118555,0.102298828 1.78539258,0.244435547 C1.78313281,0.264621094 1.7801875,0.285060547 1.77658203,0.305195312 C1.75141992,0.445960937 1.84516211,0.580505859 1.98595313,0.605667969 C2.00136523,0.608410156 2.01670117,0.609730469 2.03180859,0.609730469 C2.15487695,0.609730469 2.26403125,0.521675781 2.28642578,0.396296875 C2.29201172,0.364990234 2.29663281,0.333150391 2.30013672,0.301691406 C2.31595508,0.159529297 2.21355469,0.031484375 2.07139258,0.0156914062 Z" id="Shape"></path>
            </g>
        </g>
    </g>
</svg>