<?xml version="1.0" encoding="UTF-8"?>
<svg width="58px" height="82px" viewBox="0 0 58 82" version="1.1" xmlns="http://www.w3.org/2000/svg" xmlns:xlink="http://www.w3.org/1999/xlink">
    <!-- Generator: Sketch 43.2 (39069) - http://www.bohemiancoding.com/sketch -->
    <title>note</title>
    <desc>Created with Sketch.</desc>
    <defs></defs>
    <g id="Page-1" stroke="none" stroke-width="1" fill="none" fill-rule="evenodd">
        <g id="Artboard" transform="translate(-24.000000, -7.000000)" fill="#FFFFFF">
            <g id="note" transform="translate(23.000000, 7.000000)">
                <g id="Group" transform="translate(2.000000, 0.000000)" fill-rule="nonzero">
                    <path d="M55.261,35.724 L52.412,32.874 C51.284,31.747 49.318,31.747 48.19,32.874 L32.799,48.265 L30.678,56.044 L30.159,56.563 C29.771,56.951 29.77,57.577 30.153,57.968 L30.148,57.988 L30.167,57.983 C30.361,58.173 30.613,58.271 30.866,58.271 C31.122,58.271 31.378,58.173 31.573,57.978 L32.093,57.458 L39.871,55.337 L55.261,39.946 C56.425,38.781 56.425,36.888 55.261,35.724 Z M35.108,48.784 L45.351,38.541 L49.594,42.784 L39.351,53.027 L35.108,48.784 Z M34.206,50.71 L37.426,53.93 L32.998,55.138 L34.206,50.71 Z M53.847,38.531 L51.008,41.37 L46.765,37.127 L49.604,34.288 C49.976,33.915 50.625,33.915 50.997,34.288 L53.847,37.138 C54.231,37.521 54.231,38.147 53.847,38.531 Z" id="Shape"></path>
                    <path d="M7.135,36 L33.135,36 C33.687,36 34.135,35.553 34.135,35 C34.135,34.447 33.687,34 33.135,34 L7.135,34 C6.583,34 6.135,34.447 6.135,35 C6.135,35.553 6.583,36 7.135,36 Z" id="Shape"></path>
                    <path d="M29.135,40 L7.135,40 C6.583,40 6.135,40.447 6.135,41 C6.135,41.553 6.583,42 7.135,42 L29.135,42 C29.687,42 30.135,41.553 30.135,41 C30.135,40.447 29.688,40 29.135,40 Z" id="Shape"></path>
                    <path d="M7.135,18 L20.135,18 C20.687,18 21.135,17.553 21.135,17 C21.135,16.447 20.687,16 20.135,16 L7.135,16 C6.583,16 6.135,16.447 6.135,17 C6.135,17.553 6.583,18 7.135,18 Z" id="Shape"></path>
                    <path d="M20.135,48 C20.687,48 21.135,47.553 21.135,47 C21.135,46.447 20.687,46 20.135,46 L7.135,46 C6.583,46 6.135,46.447 6.135,47 C6.135,47.553 6.583,48 7.135,48 L20.135,48 Z" id="Shape"></path>
                    <path d="M36.135,22 L7.135,22 C6.583,22 6.135,22.447 6.135,23 C6.135,23.553 6.583,24 7.135,24 L36.135,24 C36.687,24 37.135,23.553 37.135,23 C37.135,22.447 36.688,22 36.135,22 Z" id="Shape"></path>
                    <path d="M7.135,30 L21.135,30 C21.687,30 22.135,29.553 22.135,29 C22.135,28.447 21.687,28 21.135,28 L7.135,28 C6.583,28 6.135,28.447 6.135,29 C6.135,29.553 6.583,30 7.135,30 Z" id="Shape"></path>
                    <path d="M37.135,29 C37.135,28.447 36.687,28 36.135,28 L29.135,28 C28.583,28 28.135,28.447 28.135,29 C28.135,29.553 28.583,30 29.135,30 L36.135,30 C36.688,30 37.135,29.553 37.135,29 Z" id="Shape"></path>
                    <path d="M25.845,29.709 C26.025,29.52 26.135,29.259 26.135,28.999 C26.135,28.739 26.025,28.479 25.845,28.289 C25.465,27.919 24.795,27.919 24.425,28.289 C24.245,28.479 24.135,28.739 24.135,28.999 C24.135,29.27 24.245,29.52 24.425,29.709 C24.615,29.89 24.875,29.999 25.135,29.999 C25.395,29.999 25.656,29.89 25.845,29.709 Z" id="Shape"></path>
                    <path d="M25.135,56 L2.135,56 L2.135,8 L9.135,8 L9.135,10 C9.135,10.553 9.583,11 10.135,11 L33.135,11 C33.687,11 34.135,10.553 34.135,10 L34.135,8 L41.135,8 L41.135,30 C41.135,30.553 41.583,31 42.135,31 C42.687,31 43.135,30.553 43.135,30 L43.135,7 C43.135,6.447 42.687,6 42.135,6 L34.135,6 L34.135,4 C34.135,3.447 33.687,3 33.135,3 L27.135,3 L27.135,1 C27.135,0.447 26.687,0 26.135,0 L17.135,0 C16.583,0 16.135,0.447 16.135,1 L16.135,3 L10.135,3 C9.583,3 9.135,3.447 9.135,4 L9.135,6 L1.135,6 C0.583,6 0.135,6.447 0.135,7 L0.135,57 C0.135,57.553 0.583,58 1.135,58 L25.135,58 C25.687,58 26.135,57.553 26.135,57 C26.135,56.447 25.688,56 25.135,56 Z M18.135,2 L25.135,2 L25.135,4 L25.135,6 L18.135,6 L18.135,4 L18.135,2 Z M11.135,5 L16.135,5 L16.135,7 C16.135,7.553 16.583,8 17.135,8 L26.135,8 C26.687,8 27.135,7.553 27.135,7 L27.135,5 L32.135,5 L32.135,7 L32.135,9 L11.135,9 L11.135,7 L11.135,5 L11.135,5 Z" id="Shape"></path>
                </g>
                <text id="Notes" font-family="OpenSans, Open Sans" font-size="18" font-weight="normal">
                    <tspan x="0" y="81">Notes</tspan>
                </text>
            </g>
        </g>
    </g>
</svg>