<?xml version="1.0" encoding="UTF-8"?>
<svg width="12px" height="12px" viewBox="0 0 12 12" version="1.1" xmlns="http://www.w3.org/2000/svg" xmlns:xlink="http://www.w3.org/1999/xlink">
    <!-- Generator: Sketch 43.2 (39069) - http://www.bohemiancoding.com/sketch -->
    <title>error</title>
    <desc>Created with Sketch.</desc>
    <defs></defs>
    <g id="Page-1" stroke="none" stroke-width="1" fill="none" fill-rule="evenodd">
        <g id="error" fill-rule="nonzero" fill="#999999">
            <path d="M6,0 C2.69169231,0 0,2.69146154 0,6 C0,9.30853846 2.69169231,12 6,12 C9.30830769,12 12,9.30853846 12,6 C12,2.69146154 9.30830769,0 6,0 Z M6,11.5384615 C2.94623077,11.5384615 0.461538462,9.05376923 0.461538462,6 C0.461538462,2.94623077 2.94623077,0.461538462 6,0.461538462 C9.05376923,0.461538462 11.5384615,2.94623077 11.5384615,6 C11.5384615,9.05376923 9.05376923,11.5384615 6,11.5384615 Z" id="Shape"></path>
            <path d="M8.24007692,3.75992308 C8.14984615,3.66969231 8.004,3.66969231 7.91376923,3.75992308 L6,5.67369231 L4.08623077,3.75992308 C3.996,3.66969231 3.85015385,3.66969231 3.75992308,3.75992308 C3.66969231,3.85015385 3.66969231,3.996 3.75992308,4.08623077 L5.67369231,6 L3.75992308,7.91376923 C3.66969231,8.004 3.66969231,8.14984615 3.75992308,8.24007692 C3.80492308,8.28507692 3.864,8.30769231 3.92307692,8.30769231 C3.98215385,8.30769231 4.04123077,8.28507692 4.08623077,8.24007692 L6,6.32630769 L7.91376923,8.24007692 C7.95876923,8.28507692 8.01784615,8.30769231 8.07692308,8.30769231 C8.136,8.30769231 8.19507692,8.28507692 8.24007692,8.24007692 C8.33030769,8.14984615 8.33030769,8.004 8.24007692,7.91376923 L6.32630769,6 L8.24007692,4.08623077 C8.33030769,3.996 8.33030769,3.85015385 8.24007692,3.75992308 Z" id="Shape"></path>
        </g>
    </g>
</svg>