<?xml version="1.0" encoding="UTF-8"?>
<svg width="2rem" height="2rem" viewBox="0 0 30 36" version="1.1" xmlns="http://www.w3.org/2000/svg" xmlns:xlink="http://www.w3.org/1999/xlink">
    <g id="Page-1" stroke="none" stroke-width="1" fill="none" fill-rule="evenodd">
        <g id="delete" fill-rule="nonzero" fill="#666666">
            <polygon  points="9.875 11.175 12.125 11.175 12.125 29.175 9.875 29.175" fill="#666666"></polygon>
            <polygon  points="17.375 11.175 19.625 11.175 19.625 29.175 17.375 29.175" fill="#666666"></polygon>
            <polygon  points="0.375 4.425 29.625 4.425 29.625 6.675 0.375 6.675" fill="#666666"></polygon>
            <path d="M20.55,5.55 L18.45,5.55 L18.45,3.3 C18.45,2.625 17.925,2.1 17.25,2.1 L12.75,2.1 C12.075,2.1 11.55,2.625 11.55,3.3 L11.55,5.55 L9.45,5.55 L9.45,3.3 C9.45,1.5 10.95,0 12.75,0 L17.25,0 C19.05,0 20.55,1.5 20.55,3.3 L20.55,5.55" fill="#666666"></path>
            <path d="M21.75,35.925 L8.25,35.925 C6.45,35.925 4.875,34.425 4.725,32.625 L2.625,5.625 L4.875,5.475 L6.975,32.475 C7.05,33.15 7.65,33.675 8.25,33.675 L21.75,33.675 C22.425,33.675 23.025,33.075 23.025,32.475 L25.125,5.475 L27.375,5.625 L25.275,32.625 C25.125,34.5 23.55,35.925 21.75,35.925" fill="#666666"></path>
        </g>
    </g>
</svg>